PathFileType  4	(X/Y/Z) C:\Users\antoi\Documents\MyRepositories\mobilecap\ResultsAnalysis
DataRate	CameraRate	NumFrames	NumMarkers	Units	OrigDataRate	OrigDataStartFrame	OrigNumFrames
100.0	100.0	6	51	mm	100.0	37	147
Frame#	Time	r_knee			r_shank_antsup			r_ankle			r_calc			r_5meta			r_toe			L_knee			L_shank_antsup			L_ankle			L_calc			L_5meta			L_toe			r_sh2			r_sh3			r_sh4			L_sh2			L_sh3			r_thigh1			r_thigh2			r_thigh3			r_thigh4			r_thigh5			L_thigh1			L_thigh2			L_thigh3			L_thigh4			r.ASIS			r.PSIS			L.ASIS			L.PSIS			C7			R_Shoulder			L_Shoulder			R_Sternum			L_Sternum			R_humerus			R_elbow_med			R_elbow_lat			R_forearm			R_wrist_radius			R_wrist_ulna			L_humerus			L_elbow_med			L_elbow_lat			L_forearm			L_wrist_radius			L_wrist_ulna			R_HJC			L_HJC			R_HJC_reg			L_HJC_reg			
		X1	Y1	Z1	X2	Y2	Z2	X3	Y3	Z3	X4	Y4	Z4	X5	Y5	Z5	X6	Y6	Z6	X7	Y7	Z7	X8	Y8	Z8	X9	Y9	Z9	X10	Y10	Z10	X11	Y11	Z11	X12	Y12	Z12	X13	Y13	Z13	X14	Y14	Z14	X15	Y15	Z15	X16	Y16	Z16	X17	Y17	Z17	X18	Y18	Z18	X19	Y19	Z19	X20	Y20	Z20	X21	Y21	Z21	X22	Y22	Z22	X23	Y23	Z23	X24	Y24	Z24	X25	Y25	Z25	X26	Y26	Z26	X27	Y27	Z27	X28	Y28	Z28	X29	Y29	Z29	X30	Y30	Z30	X31	Y31	Z31	X32	Y32	Z32	X33	Y33	Z33	X34	Y34	Z34	X35	Y35	Z35	X36	Y36	Z36	X37	Y37	Z37	X38	Y38	Z38	X39	Y39	Z39	X40	Y40	Z40	X41	Y41	Z41	X42	Y42	Z42	X43	Y43	Z43	X44	Y44	Z44	X45	Y45	Z45	X46	Y46	Z46	X47	Y47	Z47	X48	Y48	Z48	X49	Y49	Z49	X50	Y50	Z50	X51	Y51	Z51	

37	0.36000000	178.81323	464.06493	-82.36966	172.68769	390.22343	-63.53517	96.43598	98.58202	-123.47696	25.42820	68.38158	-166.84826	191.36263	44.23247	-92.22380	239.39571	60.43081	-145.86010	351.14857	487.14268	-355.36797	355.79318	415.15751	-357.55713	179.16950	159.39716	-325.94605	101.18610	159.56322	-280.04917	240.89574	71.19703	-343.31645	295.77361	77.31301	-290.34327	150.51437	279.86360	-67.75177	101.21707	403.98371	-81.21045	71.37838	292.89707	-91.78122	280.67489	460.59360	-376.01378	226.72114	351.29734	-374.72809	277.23889	774.61592	-70.30331	277.32320	659.67950	-67.80693	224.58533	639.58593	-29.78465	175.94127	774.58781	-13.34491	168.84786	659.08801	-30.86099	306.89978	772.90198	-365.32618	362.49706	649.55433	-363.19051	199.32475	727.26550	-389.01248	267.19602	600.76553	-380.77278	269.28623	920.68623	-76.43866	82.97364	937.82355	-150.05143	263.84361	916.52144	-334.08836	78.13450	926.87671	-257.24816	149.27485	1399.29456	-172.67877	221.64640	1323.13251	-34.12708	186.50786	1361.87037	-347.59626	263.01416	1310.67572	-174.86927	258.92202	1315.36433	-219.05295	287.79970	1087.32099	6.87584	249.74212	978.17795	-39.90883	288.26587	997.66549	19.35592	380.21641	920.65754	-13.57027	447.69970	828.44872	-51.42046	422.85056	802.69966	-24.82062	201.12020	1234.78735	-414.59247	125.66293	1025.70098	-387.45676	134.23250	1037.73961	-446.78268	196.65796	947.80905	-472.31676	232.51978	826.69331	-468.91956	198.90530	813.29217	-481.28553	202.61772	844.89304	-103.02774	202.91937	842.55911	-303.30691	204.86752	848.51967	-102.39438	197.23609	831.25433	-271.45125	
38	0.37000000	183.38897	463.97247	-82.01046	176.26719	390.13502	-63.16154	96.96462	99.16588	-123.38107	25.82532	69.25956	-166.79940	191.46835	44.15986	-92.09395	239.88966	60.23636	-145.69526	365.80317	488.51256	-354.15670	373.09167	417.02415	-356.59305	208.61540	153.10013	-324.38770	131.23738	148.68543	-277.45850	274.59296	68.62325	-343.34847	329.96017	77.38422	-291.04253	152.88143	280.04217	-67.42581	105.01326	404.68703	-81.00416	73.98348	293.86645	-91.59911	295.37195	459.03991	-374.24562	246.71050	347.43446	-373.04899	286.11302	773.44203	-69.86574	284.74224	658.49896	-67.43111	231.82499	639.02526	-29.69427	184.87008	774.51243	-12.96070	176.34733	659.14553	-30.70890	318.59530	773.46948	-364.83877	375.06943	650.99057	-362.37454	210.96174	726.68147	-388.48283	280.30595	601.03358	-380.04199	279.42522	920.02997	-75.71262	93.22790	937.23896	-149.86113	274.03281	915.91416	-333.56872	88.39185	926.05051	-256.99772	158.78516	1398.73181	-172.89045	231.42154	1323.02840	-34.11682	195.97646	1360.64936	-347.79858	272.68392	1310.21098	-174.90678	268.47541	1314.68095	-219.06300	298.68047	1087.40170	5.79595	260.57928	978.25010	-40.86458	299.90226	997.70731	17.94554	391.96466	921.61000	-16.83717	459.67675	830.06941	-56.15095	435.53262	804.10373	-29.01492	210.86665	1233.38455	-414.39722	135.52791	1024.18721	-386.89728	143.71955	1036.34628	-446.39376	206.30708	946.60242	-472.23815	242.64928	825.64585	-469.18441	209.00268	812.12136	-481.26013	212.74402	844.25631	-102.55680	213.26487	841.87884	-302.83507	214.91708	848.17479	-101.54393	207.28149	830.50951	-270.69567	
39	0.38000000	188.18724	463.84329	-81.63182	180.07735	390.00276	-62.76864	97.53813	99.79615	-123.24545	26.22215	70.20323	-166.71305	191.60857	44.07987	-91.96112	240.35369	60.04236	-145.51849	379.90308	489.59182	-352.96058	389.81008	418.72325	-355.65071	238.13644	147.10628	-322.98324	161.55969	138.27931	-275.11366	308.06472	66.49270	-343.48942	363.73604	77.83446	-291.77406	155.40823	280.20070	-67.07095	109.03662	405.37751	-80.73218	76.74920	294.88946	-91.35446	309.60884	457.19494	-372.39461	266.50562	343.41716	-371.24695	295.06403	772.19525	-69.50391	292.24988	657.29124	-67.10139	239.18528	638.39748	-29.61840	193.90917	774.34211	-12.59507	183.98387	659.11278	-30.52193	329.99614	773.72084	-364.51229	387.19771	652.04736	-361.77374	222.28484	725.94906	-387.80530	292.87627	601.05715	-379.20434	289.59543	919.29092	-75.13102	103.55488	936.56733	-149.66141	284.08561	915.17739	-333.10030	98.64667	925.17842	-256.73740	168.29704	1398.09207	-173.29418	241.16596	1322.91083	-34.26173	205.59389	1359.22857	-348.17083	282.34713	1309.65435	-175.07050	278.03873	1313.88343	-219.20561	309.49538	1087.47958	4.72169	271.53844	978.29752	-41.96927	311.44476	997.74655	16.54623	403.57618	922.46641	-19.91430	471.44562	831.52350	-60.56302	447.90024	805.36651	-32.98892	220.89286	1231.73396	-414.26717	145.70618	1022.45600	-386.42521	153.62619	1034.69071	-446.06104	216.25272	945.05902	-472.18260	252.87467	824.21130	-469.47202	219.18788	810.59507	-481.24496	222.90529	843.53758	-102.13913	223.51892	841.09375	-302.41614	225.01671	847.69875	-100.80760	217.26091	829.70361	-269.99652	
40	0.39000000	193.21965	463.66023	-81.24067	184.12722	389.82037	-62.37022	98.13505	100.46902	-123.07766	26.63370	71.21095	-166.59265	191.78676	43.99174	-91.82822	240.75465	59.83305	-145.32578	393.47250	490.36991	-351.76525	405.94271	420.24109	-354.71413	267.70283	141.48091	-321.77520	192.10089	128.43475	-273.09050	341.28467	64.81478	-343.71338	397.04742	78.63667	-292.48956	158.10395	280.32791	-66.69768	113.30668	406.04489	-80.40296	79.68316	295.95372	-91.05657	323.49428	455.02754	-370.48008	286.11774	339.28049	-369.36473	304.09714	770.87654	-69.19428	299.89650	656.03432	-66.81541	246.67450	637.69647	-29.53364	203.04642	774.06394	-12.24718	191.75446	658.97569	-30.28754	341.06434	773.68386	-364.33814	398.91147	652.73092	-361.36239	233.31382	725.07604	-387.00101	304.94714	600.82518	-378.26532	299.82264	918.46534	-74.68715	113.95322	935.82882	-149.44759	294.10103	914.38294	-332.69914	108.91462	924.28282	-256.46786	177.83723	1397.38465	-173.88776	250.89636	1322.78726	-34.56388	215.33711	1357.63456	-348.70851	292.01765	1309.02534	-175.36472	287.63371	1312.99739	-219.49450	320.24840	1087.54787	3.65424	282.60170	978.30089	-43.18720	322.88632	997.78129	15.16875	415.04997	923.21485	-22.78490	483.01716	832.80341	-64.64274	459.95063	806.48007	-36.73401	231.16089	1229.88132	-414.21322	156.20102	1020.53605	-386.04053	163.93480	1032.80152	-445.79171	226.47875	943.21964	-472.17789	263.18561	822.41931	-469.79164	229.45872	808.74500	-481.24572	233.12993	842.74013	-101.79355	233.73747	840.26055	-302.06973	235.19354	847.12422	-100.19411	227.22785	828.87238	-269.37730	
41	0.40000000	198.48469	463.40421	-80.84390	188.41020	389.58587	-61.97550	98.73294	101.17685	-122.88845	27.07187	72.28433	-166.44502	191.99583	43.89291	-91.69910	241.08639	59.59875	-145.11553	406.53746	490.83554	-350.56141	421.51582	421.56460	-353.76454	297.28015	136.27277	-320.79446	222.80844	119.20285	-271.44703	374.24835	63.59755	-343.99195	429.86043	79.78095	-293.14452	160.96949	280.41870	-66.31659	117.82642	406.68288	-80.02901	82.78853	297.04242	-90.71517	337.12341	452.51920	-368.55571	305.56292	335.06010	-367.48326	313.21389	769.48498	-68.91624	307.72947	654.69941	-66.57079	254.29718	636.91841	-29.41937	212.26651	773.67034	-11.90992	199.65374	658.72448	-29.99864	351.76626	773.38803	-364.32102	410.24714	653.04252	-361.10332	244.08487	724.07114	-386.10622	316.58602	600.32459	-377.23057	310.12532	917.54263	-74.36277	124.41609	935.04112	-149.22086	304.19579	913.58619	-332.38345	119.21686	923.37539	-256.19360	187.43780	1396.61568	-174.66838	260.64701	1322.66947	-35.02284	225.18011	1355.89178	-349.40745	301.72692	1308.34182	-175.79484	297.28817	1312.04694	-219.94157	330.95420	1087.60681	2.58943	293.72074	978.25603	-44.45744	334.22342	997.81485	13.82167	426.38898	923.85134	-25.44084	494.39687	833.90140	-68.37873	471.69052	807.43920	-40.23521	241.62864	1227.87066	-414.24329	167.00920	1018.45140	-385.73826	174.62012	1030.70803	-445.59371	236.96830	941.12638	-472.24845	273.58595	820.30965	-470.15513	239.82348	806.61130	-481.26896	243.43940	841.86160	-101.53342	243.98461	839.42213	-301.80981	245.46385	846.48014	-99.70351	237.24181	828.03362	-268.86122	
42	0.41000000	203.96537	463.06096	-80.44944	192.90783	389.30215	-61.59065	99.31483	101.91260	-122.69089	27.54639	73.43249	-166.28182	192.21903	43.77988	-91.57883	241.36564	59.33460	-144.89181	419.12405	490.97618	-349.35066	436.58199	422.68276	-352.78685	326.82301	131.51626	-320.05891	253.62368	110.60695	-270.21578	406.96538	62.84795	-344.29537	462.16374	81.28453	-293.70341	163.99895	280.47647	-65.94042	122.57693	407.29096	-79.63101	86.06601	298.13741	-90.34088	350.56901	449.66786	-366.69999	324.86797	330.78372	-365.70228	322.41003	768.01766	-68.65093	315.76623	653.26595	-66.36169	262.04917	636.06228	-29.26537	221.55163	773.16052	-11.57713	207.67179	658.35731	-29.65942	362.09842	772.85779	-364.47338	421.24578	652.97962	-360.95598	254.64649	722.94289	-385.16811	327.86931	599.54835	-376.11034	320.50585	916.51043	-74.13137	134.93360	934.21669	-148.98806	314.46313	912.80631	-332.16328	129.57770	922.45957	-255.92320	197.12845	1395.78938	-175.63137	270.46467	1322.57116	-35.63559	235.09816	1354.02062	-350.26411	311.51751	1307.61775	-176.36843	307.03066	1311.05147	-220.55422	341.63638	1087.66315	1.52227	304.83272	978.17675	-45.71074	345.45794	997.85500	12.51350	437.59875	924.37899	-27.88190	505.58391	834.80898	-71.76252	483.14268	808.23942	-43.46887	252.25304	1225.74060	-414.36552	178.12139	1016.22309	-385.51394	185.65306	1028.43902	-445.47589	247.70441	938.81998	-472.41253	284.09384	817.93098	-470.57691	250.29979	804.23819	-481.32134	253.83732	840.89713	-101.36004	254.31036	838.59426	-301.63787	255.82246	845.77869	-99.32912	247.35063	827.18330	-268.46528	
